<svg width="1920" height="821" viewBox="0 0 1920 821" fill="none" xmlns="http://www.w3.org/2000/svg">
<rect width="1920" height="820.88" fill="#000913"/>
<path d="M791.463 230.514H846.35L861.535 175.627L755.479 113.069L791.463 230.514Z" fill="#07121A"/>
<path d="M1128.54 230.514L1164.52 113.069L1058.46 175.627L1073.65 230.514H1128.54Z" fill="#07121A"/>
<path d="M1128.54 294.892C1117.23 294.892 1031.97 264.602 1031.97 264.602L960 349.858L888.03 264.602C888.03 264.602 804.671 294.892 791.463 294.892C730.803 294.892 753.58 238.107 753.58 238.107C753.58 238.107 598.251 397.153 581.248 522.191C581.248 522.191 626.644 452.119 774.38 418.032C796.946 464.639 836.132 501.118 884.234 520.293C878.539 495.697 872.845 467.225 867.23 440.731C855.676 430.728 845.468 419.27 836.86 406.644C842.554 406.644 893.724 400.949 901.317 400.949C906.932 421.829 937.302 628.248 937.302 628.248L881.94 709.709V788.797L960 757.004L1037.66 789.192V707.811L982.303 626.35C982.303 626.35 1012.67 419.93 1018.29 399.051C1023.98 399.051 1075.15 404.746 1082.74 404.746C1074.7 417.802 1064.42 429.341 1052.37 438.832C1045.32 465.038 1039.64 491.595 1035.37 518.395C1084 499.917 1123.54 463.244 1145.62 416.134C1293.36 452.119 1338.75 520.293 1338.75 520.293C1321.75 397.153 1166.42 236.446 1166.42 236.446C1166.42 236.446 1189.2 295.13 1128.54 295.13" fill="#07121A"/>
<path d="M960 31.6875L899.419 200.224H901.317L960 277.888L1018.68 200.224H1020.58L960 31.6875Z" fill="#07121A"/>
</svg>
